<svg width="76" height="79" viewBox="0 0 76 79" fill="none" xmlns="http://www.w3.org/2000/svg">
<path fill-rule="evenodd" clip-rule="evenodd" d="M14.467 7.25586H24.9856C29.3736 7.25586 32.8901 10.9559 32.8901 15.4958V26.4641C32.8901 31.0328 29.3736 34.7007 24.9856 34.7007H14.467C10.1102 34.7007 6.5625 31.0328 6.5625 26.4641V15.4958C6.5625 10.9559 10.1102 7.25586 14.467 7.25586ZM14.467 44.157H24.9856C29.3736 44.157 32.8901 47.8281 32.8901 52.3969V63.3652C32.8901 67.9018 29.3736 71.6018 24.9856 71.6018H14.467C10.1102 71.6018 6.5625 67.9018 6.5625 63.3652V52.3969C6.5625 47.8281 10.1102 44.157 14.467 44.157ZM60.9005 7.25586H50.3819C45.994 7.25586 42.4774 10.9559 42.4774 15.4958V26.4641C42.4774 31.0328 45.994 34.7007 50.3819 34.7007H60.9005C65.2573 34.7007 68.805 31.0328 68.805 26.4641V15.4958C68.805 10.9559 65.2573 7.25586 60.9005 7.25586ZM50.3819 44.157H60.9005C65.2573 44.157 68.805 47.8281 68.805 52.3969V63.3652C68.805 67.9018 65.2573 71.6018 60.9005 71.6018H50.3819C45.994 71.6018 42.4774 67.9018 42.4774 63.3652V52.3969C42.4774 47.8281 45.994 44.157 50.3819 44.157Z" fill="white"/>
</svg>
