<svg width="39" height="39" viewBox="0 0 39 39" fill="none" xmlns="http://www.w3.org/2000/svg">
<path d="M29 0H10C4.47715 0 0 4.47715 0 10V29C0 34.5228 4.47715 39 10 39H29C34.5228 39 39 34.5228 39 29V10C39 4.47715 34.5228 0 29 0Z" fill="#E1ECFF"/>
<path d="M29.493 12.5305L20.7 9.97254C20.5695 9.93363 20.4305 9.93363 20.3 9.97254L11.5 12.5305C11.3547 12.5739 11.2274 12.6632 11.1372 12.7851C11.047 12.907 10.9989 13.0549 11 13.2065V20.8875C11 27.5725 19.948 29.8875 20.331 29.9795C20.4464 30.01 20.5677 30.01 20.683 29.9795C21.232 29.8385 30 27.5095 30 20.8875V13.2065C30.0007 13.054 29.9515 12.9054 29.86 12.7834C29.7685 12.6614 29.6396 12.5726 29.493 12.5305ZM28.593 20.8865C28.593 26.0235 21.683 28.2405 20.5 28.5675C19.318 28.2405 12.407 26.0345 12.407 20.8865V13.7375L20.5 11.3805L28.593 13.7345V20.8865Z" fill="#1A6EFF"/>
<path d="M19.7975 15.5706V16.3056C19.2774 16.3957 18.81 16.6774 18.4873 17.0951C18.1646 17.5128 18.0101 18.0363 18.0543 18.5623C18.0985 19.0883 18.3381 19.5786 18.7259 19.9367C19.1138 20.2947 19.6217 20.4945 20.1495 20.4966H21.2055C21.3921 20.4966 21.571 20.5707 21.703 20.7026C21.8349 20.8346 21.909 21.0135 21.909 21.2001C21.909 21.3867 21.8349 21.5656 21.703 21.6975C21.571 21.8295 21.3921 21.9036 21.2055 21.9036H19.0935C18.9069 21.9036 18.728 21.9777 18.5961 22.1096C18.4641 22.2416 18.39 22.4205 18.39 22.6071C18.39 22.7937 18.4641 22.9726 18.5961 23.1045C18.728 23.2365 18.9069 23.3106 19.0935 23.3106H19.7935V24.0106C19.7935 24.1972 19.8676 24.3761 19.9996 24.508C20.1315 24.64 20.3104 24.7141 20.497 24.7141C20.6836 24.7141 20.8625 24.64 20.9945 24.508C21.1264 24.3761 21.2005 24.1972 21.2005 24.0106V23.3106C21.7604 23.3106 22.2973 23.0882 22.6932 22.6923C23.0891 22.2964 23.3115 21.7595 23.3115 21.1996C23.3115 20.6397 23.0891 20.1028 22.6932 19.7069C22.2973 19.311 21.7604 19.0886 21.2005 19.0886H20.1485C19.9619 19.0886 19.783 19.0145 19.6511 18.8825C19.5191 18.7506 19.445 18.5717 19.445 18.3851C19.445 18.1985 19.5191 18.0196 19.6511 17.8876C19.783 17.7557 19.9619 17.6816 20.1485 17.6816H22.2595C22.4461 17.6816 22.625 17.6075 22.757 17.4755C22.8889 17.3436 22.963 17.1647 22.963 16.9781C22.963 16.7915 22.8889 16.6126 22.757 16.4806C22.625 16.3487 22.4461 16.2746 22.2595 16.2746H21.2045V15.5746C21.2045 15.388 21.1304 15.2091 20.9985 15.0771C20.8665 14.9452 20.6876 14.8711 20.501 14.8711C20.3144 14.8711 20.1355 14.9452 20.0036 15.0771C19.8716 15.2091 19.7975 15.388 19.7975 15.5746V15.5706Z" fill="#1A6EFF"/>
</svg>
