<svg width="39" height="39" viewBox="0 0 39 39" fill="none" xmlns="http://www.w3.org/2000/svg">
<path d="M29 0H10C4.47715 0 0 4.47715 0 10V29C0 34.5228 4.47715 39 10 39H29C34.5228 39 39 34.5228 39 29V10C39 4.47715 34.5228 0 29 0Z" fill="#E1ECFF"/>
<path d="M16.7783 17.168C16.9698 17.168 17.1535 17.2441 17.2889 17.3795C17.4243 17.5149 17.5003 17.6985 17.5003 17.89C17.5003 18.0815 17.5764 18.2651 17.7118 18.4005C17.8472 18.5359 18.0308 18.612 18.2223 18.612C18.4138 18.612 18.5975 18.5359 18.7329 18.4005C18.8683 18.2651 18.9443 18.0815 18.9443 17.89C18.9322 17.3235 18.6986 16.7842 18.2936 16.3879C17.8886 15.9915 17.3445 15.7695 16.7778 15.7695C16.2112 15.7695 15.667 15.9915 15.2621 16.3879C14.8571 16.7842 14.6235 17.3235 14.6113 17.89C14.6113 18.0815 14.6874 18.2651 14.8228 18.4005C14.9582 18.5359 15.1418 18.612 15.3333 18.612C15.5248 18.612 15.7085 18.5359 15.8439 18.4005C15.9793 18.2651 16.0553 18.0815 16.0553 17.89C16.0553 17.7951 16.074 17.7011 16.1104 17.6135C16.1467 17.5258 16.2 17.4462 16.2672 17.3791C16.3343 17.312 16.414 17.2589 16.5017 17.2227C16.5894 17.1864 16.6834 17.1679 16.7783 17.168Z" fill="#1A6EFF"/>
<path d="M22.5557 15.7246C21.9809 15.7246 21.4298 15.9529 21.0234 16.3593C20.617 16.7657 20.3887 17.3169 20.3887 17.8916C20.3887 18.0831 20.4647 18.2667 20.6001 18.4021C20.7355 18.5375 20.9192 18.6136 21.1107 18.6136C21.3022 18.6136 21.4858 18.5375 21.6212 18.4021C21.7566 18.2667 21.8327 18.0831 21.8327 17.8916C21.8327 17.7001 21.9087 17.5165 22.0441 17.3811C22.1795 17.2457 22.3632 17.1696 22.5547 17.1696C22.7462 17.1696 22.9298 17.2457 23.0652 17.3811C23.2006 17.5165 23.2767 17.7001 23.2767 17.8916C23.2767 18.0831 23.3527 18.2667 23.4881 18.4021C23.6235 18.5375 23.8072 18.6136 23.9987 18.6136C24.1902 18.6136 24.3738 18.5375 24.5092 18.4021C24.6446 18.2667 24.7207 18.0831 24.7207 17.8916C24.7207 17.3172 24.4926 16.7663 24.0867 16.36C23.6807 15.9537 23.13 15.7251 22.5557 15.7246V15.7246Z" fill="#1A6EFF"/>
<path d="M19.667 10.668C17.9528 10.668 16.2772 11.1763 14.8519 12.1286C13.4266 13.081 12.3157 14.4346 11.6597 16.0183C11.0038 17.6019 10.8321 19.3446 11.1665 21.0258C11.501 22.7071 12.3264 24.2514 13.5385 25.4635C14.7506 26.6756 16.2949 27.501 17.9762 27.8354C19.6574 28.1699 21.4 27.9982 22.9837 27.3422C24.5674 26.6862 25.921 25.5754 26.8734 24.1501C27.8257 22.7248 28.334 21.0491 28.334 19.335C28.334 18.1968 28.1098 17.0698 27.6743 16.0183C27.2387 14.9667 26.6003 14.0113 25.7955 13.2065C24.9907 12.4017 24.0352 11.7633 22.9837 11.3277C21.9322 10.8921 20.8052 10.668 19.667 10.668V10.668ZM19.667 26.557C18.2386 26.557 16.8423 26.1334 15.6547 25.3398C14.467 24.5463 13.5414 23.4184 12.9947 22.0987C12.4481 20.7791 12.3051 19.327 12.5838 17.926C12.8624 16.5251 13.5503 15.2383 14.5603 14.2282C15.5703 13.2182 16.8571 12.5304 18.2581 12.2517C19.659 11.9731 21.1111 12.1161 22.4307 12.6627C23.7504 13.2093 24.8783 14.135 25.6719 15.3226C26.4654 16.5103 26.889 17.9066 26.889 19.335C26.889 20.2834 26.7022 21.2225 26.3393 22.0987C25.9763 22.9749 25.4444 23.7711 24.7737 24.4417C24.1031 25.1123 23.307 25.6443 22.4307 26.0072C21.5545 26.3702 20.6154 26.557 19.667 26.557Z" fill="#1A6EFF"/>
<path d="M22.0437 20.9893L21.6217 21.4133C21.0945 21.9156 20.3943 22.1957 19.6662 22.1957C18.9381 22.1957 18.2379 21.9156 17.7107 21.4133L17.2887 20.9893C17.1518 20.8606 16.9702 20.7901 16.7823 20.793C16.5944 20.7959 16.415 20.8718 16.2821 21.0047C16.1492 21.1376 16.0733 21.317 16.0704 21.5049C16.0675 21.6928 16.1379 21.8744 16.2667 22.0113L16.6907 22.4333C17.0815 22.8252 17.5458 23.1362 18.057 23.3484C18.5682 23.5605 19.1162 23.6697 19.6697 23.6697C20.2232 23.6697 20.7712 23.5605 21.2824 23.3484C21.7936 23.1362 22.2579 22.8252 22.6487 22.4333L23.0727 22.0113C23.1432 21.945 23.1997 21.8652 23.2388 21.7766C23.2779 21.6881 23.2987 21.5925 23.3002 21.4958C23.3017 21.399 23.2837 21.3029 23.2474 21.2131C23.211 21.1234 23.157 21.0419 23.0885 20.9735C23.0201 20.905 22.9386 20.851 22.8489 20.8147C22.7592 20.7783 22.6631 20.7603 22.5663 20.7618C22.4695 20.7633 22.374 20.7842 22.2854 20.8233C22.1969 20.8623 22.117 20.9188 22.0507 20.9893H22.0437Z" fill="#1A6EFF"/>
</svg>
