<svg width="76" height="79" viewBox="0 0 76 79" fill="none" xmlns="http://www.w3.org/2000/svg">
<path fill-rule="evenodd" clip-rule="evenodd" d="M12.9672 43.4727C14.2553 43.4727 15.2995 44.553 15.2995 45.8857V68.4079C15.2995 69.7407 14.2553 70.821 12.9672 70.821C11.679 70.821 10.6348 69.7407 10.6348 68.4079V45.8857C10.6348 44.553 11.679 43.4727 12.9672 43.4727Z" fill="white"/>
<path fill-rule="evenodd" clip-rule="evenodd" d="M12.9672 8.08203C14.2553 8.08203 15.2995 9.16241 15.2995 10.4951V33.0173C15.2995 34.35 14.2553 35.4304 12.9672 35.4304C11.679 35.4304 10.6348 34.35 10.6348 33.0173V10.4951C10.6348 9.16241 11.679 8.08203 12.9672 8.08203Z" fill="white"/>
<path fill-rule="evenodd" clip-rule="evenodd" d="M37.8461 37.0391C39.1342 37.0391 40.1785 38.1194 40.1785 39.4522V68.4093C40.1785 69.742 39.1342 70.8223 37.8461 70.8223C36.5579 70.8223 35.5137 69.742 35.5137 68.4093V39.4522C35.5137 38.1194 36.5579 37.0391 37.8461 37.0391Z" fill="white"/>
<path fill-rule="evenodd" clip-rule="evenodd" d="M37.8461 8.08203C39.1342 8.08203 40.1785 9.16241 40.1785 10.4951V26.5824C40.1785 27.9151 39.1342 28.9955 37.8461 28.9955C36.5579 28.9955 35.5137 27.9151 35.5137 26.5824V10.4951C35.5137 9.16241 36.5579 8.08203 37.8461 8.08203Z" fill="white"/>
<path fill-rule="evenodd" clip-rule="evenodd" d="M62.725 49.9082C64.0131 49.9082 65.0574 50.9886 65.0574 52.3213V68.4086C65.0574 69.7413 64.0131 70.8217 62.725 70.8217C61.4368 70.8217 60.3926 69.7413 60.3926 68.4086V52.3213C60.3926 50.9886 61.4368 49.9082 62.725 49.9082Z" fill="white"/>
<path fill-rule="evenodd" clip-rule="evenodd" d="M62.725 8.08203C64.0131 8.08203 65.0574 9.16241 65.0574 10.4951V39.4522C65.0574 40.7849 64.0131 41.8653 62.725 41.8653C61.4368 41.8653 60.3926 40.7849 60.3926 39.4522V10.4951C60.3926 9.16241 61.4368 8.08203 62.725 8.08203Z" fill="white"/>
<path fill-rule="evenodd" clip-rule="evenodd" d="M1.30469 45.8857C1.30469 44.553 2.34893 43.4727 3.63708 43.4727H22.2962C23.5843 43.4727 24.6286 44.553 24.6286 45.8857C24.6286 47.2185 23.5843 48.2988 22.2962 48.2988H3.63708C2.34893 48.2988 1.30469 47.2185 1.30469 45.8857Z" fill="white"/>
<path fill-rule="evenodd" clip-rule="evenodd" d="M26.1836 26.5811C26.1836 25.2483 27.2278 24.168 28.516 24.168H47.1751C48.4632 24.168 49.5075 25.2483 49.5075 26.5811C49.5075 27.9138 48.4632 28.9942 47.1751 28.9942H28.516C27.2278 28.9942 26.1836 27.9138 26.1836 26.5811Z" fill="white"/>
<path fill-rule="evenodd" clip-rule="evenodd" d="M51.0625 52.3213C51.0625 50.9886 52.1067 49.9082 53.3949 49.9082H72.054C73.3421 49.9082 74.3864 50.9886 74.3864 52.3213C74.3864 53.654 73.3421 54.7344 72.054 54.7344H53.3949C52.1067 54.7344 51.0625 53.654 51.0625 52.3213Z" fill="white"/>
</svg>
