<svg width="39" height="39" viewBox="0 0 39 39" fill="none" xmlns="http://www.w3.org/2000/svg">
<path d="M29 0H10C4.47715 0 0 4.47715 0 10V29C0 34.5228 4.47715 39 10 39H29C34.5228 39 39 34.5228 39 29V10C39 4.47715 34.5228 0 29 0Z" fill="#E1ECFF"/>
<path d="M29.3176 17.9181L28.3686 15.7181C28.2007 15.3256 27.9209 14.9912 27.5642 14.7568C27.2074 14.5224 26.7894 14.3983 26.3626 14.4001H24.8316V13.8391C24.8313 13.6161 24.7426 13.4023 24.5849 13.2447C24.4273 13.087 24.2135 12.9983 23.9906 12.9981H13.2906C13.2167 12.9975 13.1436 13.0117 13.0753 13.0397C13.0069 13.0677 12.9449 13.109 12.8927 13.1612C12.8405 13.2134 12.7992 13.2754 12.7712 13.3437C12.7432 13.4121 12.729 13.4852 12.7296 13.5591C12.7321 13.707 12.7921 13.8482 12.8967 13.9529C13.0014 14.0576 13.1426 14.1175 13.2906 14.1201H23.6666V18.2611C23.6658 18.383 23.6892 18.5039 23.7355 18.6167C23.7818 18.7296 23.8501 18.8321 23.9363 18.9183C24.0225 19.0046 24.125 19.0728 24.2379 19.1191C24.3507 19.1654 24.4716 19.1889 24.5936 19.1881H28.3246V21.8001C28.3247 21.8256 28.3198 21.8509 28.3101 21.8745C28.3004 21.8981 28.2861 21.9195 28.268 21.9375C28.25 21.9556 28.2286 21.9699 28.205 21.9796C28.1814 21.9893 28.1561 21.9942 28.1306 21.9941H27.4406C27.2587 21.6801 26.9977 21.4193 26.6837 21.2377C26.3696 21.0561 26.0134 20.96 25.6506 20.9591C25.2887 20.9646 24.9343 21.0626 24.621 21.2438C24.3077 21.4249 24.0459 21.6832 23.8606 21.9941H18.1016C17.9197 21.6801 17.6587 21.4193 17.3447 21.2377C17.0306 21.0561 16.6744 20.96 16.3116 20.9591C15.9497 20.9646 15.5953 21.0626 15.282 21.2438C14.9687 21.4249 14.7069 21.6832 14.5216 21.9941H12.5376C12.3888 21.9941 12.2461 22.0532 12.1409 22.1584C12.0357 22.2636 11.9766 22.4063 11.9766 22.5551C11.9766 22.7038 12.0357 22.8465 12.1409 22.9517C12.2461 23.057 12.3888 23.1161 12.5376 23.1161H14.2376C14.258 23.6516 14.485 24.1583 14.8711 24.53C15.2571 24.9016 15.7722 25.1092 16.3081 25.1092C16.8439 25.1092 17.359 24.9016 17.745 24.53C18.1311 24.1583 18.3582 23.6516 18.3786 23.1161H23.5786C23.599 23.6516 23.826 24.1583 24.2121 24.53C24.5981 24.9016 25.1132 25.1092 25.6491 25.1092C26.1849 25.1092 26.7 24.9016 27.086 24.53C27.4721 24.1583 27.6992 23.6516 27.7196 23.1161H28.1766C28.5248 23.1142 28.8583 22.9749 29.1044 22.7285C29.3505 22.482 29.4892 22.1483 29.4906 21.8001V18.7801C29.4851 18.4847 29.4265 18.1927 29.3176 17.9181ZM16.3116 23.9781C16.1239 23.9781 15.9404 23.9224 15.7843 23.8181C15.6283 23.7138 15.5066 23.5656 15.4348 23.3922C15.363 23.2188 15.3442 23.028 15.3808 22.8439C15.4174 22.6598 15.5078 22.4907 15.6405 22.358C15.7732 22.2253 15.9423 22.1349 16.1264 22.0983C16.3105 22.0617 16.5013 22.0805 16.6747 22.1523C16.8481 22.2241 16.9964 22.3458 17.1006 22.5018C17.2049 22.6579 17.2606 22.8414 17.2606 23.0291C17.2585 23.2801 17.1578 23.5203 16.9803 23.6978C16.8028 23.8753 16.5626 23.976 16.3116 23.9781ZM25.6506 23.9781C25.4629 23.9781 25.2794 23.9224 25.1233 23.8181C24.9673 23.7138 24.8456 23.5656 24.7738 23.3922C24.702 23.2188 24.6832 23.028 24.7198 22.8439C24.7564 22.6598 24.8468 22.4907 24.9795 22.358C25.1122 22.2253 25.2813 22.1349 25.4654 22.0983C25.6495 22.0617 25.8403 22.0805 26.0137 22.1523C26.1871 22.2241 26.3354 22.3458 26.4396 22.5018C26.5439 22.6579 26.5996 22.8414 26.5996 23.0291C26.5975 23.2801 26.4968 23.5203 26.3193 23.6978C26.1418 23.8753 25.9016 23.976 25.6506 23.9781ZM24.8096 15.5451H26.3406C26.5432 15.542 26.7421 15.6 26.9113 15.7114C27.0805 15.8229 27.2123 15.9827 27.2896 16.1701L28.1096 18.0701H24.8096V15.5451Z" fill="#1A6EFF"/>
<path d="M11.6743 16.4736H15.6433C15.7921 16.4736 15.9348 16.4145 16.04 16.3093C16.1452 16.2041 16.2043 16.0614 16.2043 15.9126C16.2043 15.7638 16.1452 15.6211 16.04 15.5159C15.9348 15.4107 15.7921 15.3516 15.6433 15.3516H11.6743C11.6005 15.351 11.5273 15.3652 11.459 15.3932C11.3907 15.4212 11.3286 15.4625 11.2764 15.5147C11.2242 15.5669 11.1829 15.629 11.1549 15.6973C11.1269 15.7656 11.1128 15.8388 11.1133 15.9126C11.1159 16.0606 11.1758 16.2018 11.2805 16.3064C11.3851 16.4111 11.5263 16.471 11.6743 16.4736Z" fill="#1A6EFF"/>
<path d="M10.6177 18.6298H14.5867C14.6603 18.6298 14.7333 18.6153 14.8013 18.5871C14.8694 18.5589 14.9312 18.5176 14.9833 18.4655C15.0354 18.4134 15.0768 18.3516 15.105 18.2835C15.1331 18.2154 15.1477 18.1425 15.1477 18.0688C15.1477 17.9952 15.1331 17.9222 15.105 17.8541C15.0768 17.7861 15.0354 17.7242 14.9833 17.6721C14.9312 17.62 14.8694 17.5787 14.8013 17.5505C14.7333 17.5223 14.6603 17.5078 14.5867 17.5078H10.6177C10.5438 17.5073 10.4706 17.5214 10.4023 17.5494C10.334 17.5775 10.272 17.6188 10.2198 17.671C10.1676 17.7232 10.1263 17.7852 10.0983 17.8535C10.0703 17.9218 10.0561 17.995 10.0567 18.0688C10.0592 18.2168 10.1192 18.358 10.2238 18.4627C10.3285 18.5673 10.4697 18.6273 10.6177 18.6298Z" fill="#1A6EFF"/>
<path d="M14.112 20.227C14.1125 20.1532 14.0984 20.08 14.0704 20.0117C14.0424 19.9434 14.0011 19.8814 13.9489 19.8292C13.8967 19.777 13.8346 19.7357 13.7663 19.7077C13.698 19.6796 13.6248 19.6655 13.551 19.666H9.561C9.41221 19.666 9.26952 19.7251 9.16431 19.8303C9.05911 19.9356 9 20.0782 9 20.227C9 20.3758 9.05911 20.5185 9.16431 20.6237C9.26952 20.7289 9.41221 20.788 9.561 20.788H13.529C13.6049 20.7928 13.681 20.7817 13.7524 20.7554C13.8238 20.7292 13.889 20.6884 13.9438 20.6357C13.9986 20.5829 14.0419 20.5194 14.0708 20.449C14.0998 20.3787 14.1138 20.3031 14.112 20.227Z" fill="#1A6EFF"/>
</svg>
