<svg width="76" height="79" viewBox="0 0 76 79" fill="none" xmlns="http://www.w3.org/2000/svg">
<path fill-rule="evenodd" clip-rule="evenodd" d="M1.30469 10.4951C1.30469 9.16241 2.34893 8.08203 3.63708 8.08203H50.2849C51.573 8.08203 52.6172 9.16241 52.6172 10.4951V52.322C52.6172 53.6548 51.573 54.7351 50.2849 54.7351H3.63708C2.34893 54.7351 1.30469 53.6548 1.30469 52.322V10.4951ZM5.96947 12.9082V49.909H47.9525V12.9082H5.96947Z" fill="white"/>
<path fill-rule="evenodd" clip-rule="evenodd" d="M47.9531 26.5811C47.9531 25.2483 48.9974 24.168 50.2855 24.168H62.7249C63.3435 24.168 63.9368 24.4222 64.3742 24.8747L73.7037 34.5271C74.1411 34.9797 74.3869 35.5934 74.3869 36.2334V52.3207C74.3869 53.6534 73.3426 54.7338 72.0545 54.7338H50.2855C48.9974 54.7338 47.9531 53.6534 47.9531 52.3207V26.5811ZM52.6179 28.9942V49.9076H69.7221V37.233L61.7588 28.9942H52.6179Z" fill="white"/>
<path fill-rule="evenodd" clip-rule="evenodd" d="M17.6324 54.7344C14.6267 54.7344 12.1902 57.2553 12.1902 60.3649C12.1902 63.4746 14.6267 65.9955 17.6324 65.9955C20.6381 65.9955 23.0747 63.4746 23.0747 60.3649C23.0747 57.2553 20.6381 54.7344 17.6324 54.7344ZM7.52539 60.3649C7.52539 54.5898 12.0505 49.9082 17.6324 49.9082C23.2144 49.9082 27.7394 54.5898 27.7394 60.3649C27.7394 66.14 23.2144 70.8217 17.6324 70.8217C12.0505 70.8217 7.52539 66.14 7.52539 60.3649Z" fill="white"/>
<path fill-rule="evenodd" clip-rule="evenodd" d="M58.0601 54.7344C55.0545 54.7344 52.6179 57.2553 52.6179 60.3649C52.6179 63.4746 55.0545 65.9955 58.0601 65.9955C61.0658 65.9955 63.5024 63.4746 63.5024 60.3649C63.5024 57.2553 61.0658 54.7344 58.0601 54.7344ZM47.9531 60.3649C47.9531 54.5898 52.4782 49.9082 58.0601 49.9082C63.6421 49.9082 68.1672 54.5898 68.1672 60.3649C68.1672 66.14 63.6421 70.8217 58.0601 70.8217C52.4782 70.8217 47.9531 66.14 47.9531 60.3649Z" fill="white"/>
</svg>
